<svg aria-hidden="true" xmlns="http://www.w3.org/2000/svg" xmlns:xlink="http://www.w3.org/1999/xlink"><symbol viewBox="0 0 31 31" id="header-icon-basket" xmlns="http://www.w3.org/2000/svg">
<path d="M25.7817 11.5733C24.9162 10.6175 23.6117 10.0621 21.8033 9.86833V8.88666C21.8033 7.11708 21.0542 5.41208 19.7367 4.22375C18.4062 3.00958 16.6754 2.44125 14.88 2.60917C11.7929 2.90625 9.19666 5.89 9.19666 9.11916V9.86833C7.38833 10.0621 6.08375 10.6175 5.21833 11.5733C3.96541 12.9683 4.00416 14.8283 4.14625 16.12L5.05041 23.3146C5.32166 25.8333 6.34208 28.4167 11.8962 28.4167H19.1037C24.6579 28.4167 25.6783 25.8333 25.9496 23.3275L26.8538 16.1071C26.9958 14.8283 27.0217 12.9683 25.7817 11.5733ZM15.0608 4.40458C16.3525 4.28833 17.5796 4.68875 18.5354 5.55417C19.4783 6.40667 20.0079 7.62083 20.0079 8.88666V9.79083H10.9921V9.11916C10.9921 6.82 12.8908 4.61125 15.0608 4.40458ZM10.8758 16.9854H10.8629C10.1525 16.9854 9.57125 16.4042 9.57125 15.6937C9.57125 14.9833 10.1525 14.4021 10.8629 14.4021C11.5862 14.4021 12.1675 14.9833 12.1675 15.6937C12.1675 16.4042 11.5862 16.9854 10.8758 16.9854ZM19.9175 16.9854H19.9046C19.1942 16.9854 18.6129 16.4042 18.6129 15.6937C18.6129 14.9833 19.1942 14.4021 19.9046 14.4021C20.6279 14.4021 21.2092 14.9833 21.2092 15.6937C21.2092 16.4042 20.6279 16.9854 19.9175 16.9854Z"/>
</symbol><symbol viewBox="0 0 1 48" id="header-icon-line" xmlns="http://www.w3.org/2000/svg">
<line x1="0.5" y1="2.18557e-08" x2="0.499998" y2="48"/>
<defs>
<linearGradient id="bpaint0_linear_7_241" x1="0.999994" y1="2.5" x2="0.999966" y2="34" gradientUnits="userSpaceOnUse">
<stop stop-color="#EAF0F6"/>
<stop offset="0.552083" stop-color="#011B32"/>
<stop offset="1" stop-color="#EBF1F5"/>
</linearGradient>
</defs>
</symbol><symbol viewBox="0 0 24 24" id="header-icon-search" xmlns="http://www.w3.org/2000/svg">
<path d="M11.5 21C16.7467 21 21 16.7467 21 11.5C21 6.25329 16.7467 2 11.5 2C6.25329 2 2 6.25329 2 11.5C2 16.7467 6.25329 21 11.5 21Z" stroke-width="1.5" stroke-linecap="round" stroke-linejoin="round"/>
<path d="M22 22L20 20" stroke-width="1.5" stroke-linecap="round" stroke-linejoin="round"/>
</symbol></svg>