<svg aria-hidden="true" xmlns="http://www.w3.org/2000/svg" xmlns:xlink="http://www.w3.org/1999/xlink"><symbol viewBox="0 0 14 14" id="about-arrow-little" xmlns="http://www.w3.org/2000/svg">
<path fill-rule="evenodd" clip-rule="evenodd" d="M12.5119 0.473145C12.6562 0.473145 12.7945 0.530449 12.8965 0.632451C12.9985 0.734453 13.0558 0.872797 13.0558 1.01705L13.0558 7.54391C13.0558 7.68816 12.9985 7.82651 12.8965 7.92851C12.7945 8.03051 12.6562 8.08782 12.5119 8.08782C12.3677 8.08782 12.2293 8.03051 12.1273 7.92851C12.0253 7.82651 11.968 7.68816 11.968 7.54391L11.968 2.33004L0.931118 13.368C0.828988 13.4702 0.690468 13.5276 0.546034 13.5276C0.401599 13.5276 0.26308 13.4702 0.160949 13.368C0.0588183 13.2659 0.00144236 13.1274 0.00144236 12.983C0.00144237 12.8385 0.0588183 12.7 0.160949 12.5979L11.199 1.56095L5.98508 1.56095C5.84083 1.56095 5.70249 1.50365 5.60048 1.40165C5.49848 1.29965 5.44118 1.1613 5.44118 1.01705C5.44118 0.872797 5.49848 0.734452 5.60048 0.63245C5.70249 0.530448 5.84083 0.473144 5.98508 0.473144L12.5119 0.473145Z"/>
</symbol><symbol viewBox="0 0 81 25" id="about-arrow-long" xmlns="http://www.w3.org/2000/svg">
<path d="M68.375 10.4167H0V14.5833H68.375V25L80.75 12.5L68.375 0V10.4167Z"/>
</symbol><symbol viewBox="0 0 12 12" id="footer-arrow" xmlns="http://www.w3.org/2000/svg">
<path d="M3 10.5H10.5V3M10.5 10.5L1.5 1.5L10.5 10.5Z" stroke-width="2" stroke-linecap="round" stroke-linejoin="round"/>
</symbol><symbol viewBox="0 0 31 31" id="header-icon-basket" xmlns="http://www.w3.org/2000/svg">
<path d="M25.7817 11.5733C24.9162 10.6175 23.6117 10.0621 21.8033 9.86833V8.88666C21.8033 7.11708 21.0542 5.41208 19.7367 4.22375C18.4062 3.00958 16.6754 2.44125 14.88 2.60917C11.7929 2.90625 9.19666 5.89 9.19666 9.11916V9.86833C7.38833 10.0621 6.08375 10.6175 5.21833 11.5733C3.96541 12.9683 4.00416 14.8283 4.14625 16.12L5.05041 23.3146C5.32166 25.8333 6.34208 28.4167 11.8962 28.4167H19.1037C24.6579 28.4167 25.6783 25.8333 25.9496 23.3275L26.8538 16.1071C26.9958 14.8283 27.0217 12.9683 25.7817 11.5733ZM15.0608 4.40458C16.3525 4.28833 17.5796 4.68875 18.5354 5.55417C19.4783 6.40667 20.0079 7.62083 20.0079 8.88666V9.79083H10.9921V9.11916C10.9921 6.82 12.8908 4.61125 15.0608 4.40458ZM10.8758 16.9854H10.8629C10.1525 16.9854 9.57125 16.4042 9.57125 15.6937C9.57125 14.9833 10.1525 14.4021 10.8629 14.4021C11.5862 14.4021 12.1675 14.9833 12.1675 15.6937C12.1675 16.4042 11.5862 16.9854 10.8758 16.9854ZM19.9175 16.9854H19.9046C19.1942 16.9854 18.6129 16.4042 18.6129 15.6937C18.6129 14.9833 19.1942 14.4021 19.9046 14.4021C20.6279 14.4021 21.2092 14.9833 21.2092 15.6937C21.2092 16.4042 20.6279 16.9854 19.9175 16.9854Z"/>
</symbol><symbol viewBox="0 0 1 48" id="header-icon-line" xmlns="http://www.w3.org/2000/svg">
<line x1="0.5" y1="2.18557e-08" x2="0.499998" y2="48"/>
<defs>
<linearGradient id="epaint0_linear_7_241" x1="0.999994" y1="2.5" x2="0.999966" y2="34" gradientUnits="userSpaceOnUse">
<stop stop-color="#EAF0F6"/>
<stop offset="0.552083" stop-color="#011B32"/>
<stop offset="1" stop-color="#EBF1F5"/>
</linearGradient>
</defs>
</symbol><symbol viewBox="0 0 24 24" id="header-icon-search" xmlns="http://www.w3.org/2000/svg">
<path d="M11.5 21C16.7467 21 21 16.7467 21 11.5C21 6.25329 16.7467 2 11.5 2C6.25329 2 2 6.25329 2 11.5C2 16.7467 6.25329 21 11.5 21Z" stroke-width="1.5" stroke-linecap="round" stroke-linejoin="round"/>
<path d="M22 22L20 20" stroke-width="1.5" stroke-linecap="round" stroke-linejoin="round"/>
</symbol><symbol viewBox="0 0 50 51" id="style-star" xmlns="http://www.w3.org/2000/svg">
<path d="M18.6311 0.868864L28.5715 19.7141L49.8621 18.9001L31.0169 28.8405L31.8309 50.1311L21.8905 31.2859L0.599886 32.0999L19.4451 22.1595L18.6311 0.868864Z"/>
<defs>
<linearGradient id="gpaint0_linear_14_341" x1="18.6311" y1="0.868864" x2="31.8309" y2="50.1311" gradientUnits="userSpaceOnUse">
<stop stop-color="#F79F2D"/>
<stop offset="1" stop-color="#EE7419"/>
</linearGradient>
</defs>
</symbol><symbol viewBox="0 0 12 12" id="treendy-icon" xmlns="http://www.w3.org/2000/svg">
<path d="M3 10.5H10.5V3M10.5 10.5L1.5 1.5L10.5 10.5Z" stroke-width="2" stroke-linecap="round" stroke-linejoin="round"/>
</symbol></svg>